<svg id="Layer_2" viewBox="0 0 32 32" xmlns="http://www.w3.org/2000/svg"><defs><style>.cls-1{fill:#1a1a1a;}</style></defs><title></title><path class="cls-1" d="M16,2.5a13.5,13.5,0,0,0,0,27c.51,0,1,0,1.52-.08a14,14,0,0,0,3.29-.81,13.46,13.46,0,0,0,3.54-2l.1-.09c.36-.29.7-.59,1-.91s.7-.74,1-1.13h0A13.49,13.49,0,0,0,16,2.5Zm9.12,22c-.15.16-.29.32-.44.47s-.37.33-.56.49l-.48.41-.61.43-.51.35c-.22.13-.45.24-.67.36s-.35.2-.53.28-.48.2-.72.3-.36.15-.54.21-.53.16-.8.23-.34.11-.51.15-.61.1-.91.15c-.15,0-.3.06-.45.07a12.12,12.12,0,0,1-2.78,0c-.15,0-.3-.05-.45-.07-.3-.05-.61-.09-.91-.15s-.34-.1-.51-.15-.54-.14-.8-.23-.36-.14-.54-.21-.49-.19-.72-.3-.35-.18-.53-.28-.45-.23-.67-.37-.33-.22-.5-.34-.42-.28-.62-.43l-.48-.41c-.19-.16-.38-.32-.56-.49s-.29-.31-.44-.47l-.39-.44a10.77,10.77,0,0,1,17.12-2.57,10.63,10.63,0,0,1,1.9,2.57Zm1.06-1.29a11.53,11.53,0,0,0-1.86-2.43,11.78,11.78,0,0,0-16.64,0,11.53,11.53,0,0,0-1.86,2.43,12.5,12.5,0,1,1,20.36,0Z"></path><path class="cls-1" d="M16,6.09A4.93,4.93,0,1,0,20.93,11,4.93,4.93,0,0,0,16,6.09Zm0,8.85A3.93,3.93,0,1,1,19.93,11,3.93,3.93,0,0,1,16,14.94Z"></path></svg>